<?xml version="1.0" encoding="UTF-8"?>
<svg xmlns="http://www.w3.org/2000/svg" height="320" width="320">
<defs>
<radialGradient id="a" gradientUnits="userSpaceOnUse" cy="143" cx="127" r="144">
<stop stop-color="#ffeb00" offset="0"/>
<stop stop-color="#ff8d00" offset="1"/>
</radialGradient>
</defs>
<path d="m128 40.3c-10-10-22-19.3-37.1-19.9-19.5 7.2-15.3 38.6-18.1 50.8-13.9-3.4-29.8-4.3-42.8 2.6-13.2 15.9 6.1 41.2 9.8 53.2-13.7 4-28 11-35.8 23-3.5 21 25.8 33 35 41-9.9 11-18.6 24-19.2 39 7.2 19 38.6 15 50.8 18-3.4 14-4.3 30 2.6 43 15.9 13 40.8-6 52.8-10 4 14 11 28 24 36 20 3 32-26 41-35 10 10 23 18 38 19 20-7 15-39 18-51 14 3 30 4 43-3 13-15-6-41-10-53 14-4 28-11 36-23 4-21-26-33-35-41 10-10 19-24 19-38.5-7-19.5-38-15.3-51-18.1 4-13.9 5-29.8-2-42.7-16-13.3-41 7.3-53 11-4-13.7-13-30.3-28-38.6-22 4.76-30 27.9-38 37.2z" stroke="#f80" stroke-width="5" fill="#fd0"/>
<g stroke-linejoin="round" stroke-linecap="round">
<circle stroke="#c70" stroke-width="5" fill="url(#a)" r="118" cy="160" cx="160"/>
<path d="m92.4 193c28.4 32.2 60.6 40.1 99.4 4.34" stroke="#820" stroke-width="7.7" fill="none"/>
<circle r="27.5" cy="137" stroke="#b60" cx="105" stroke-width="4" fill="#fff"/>
<ellipse rx="13.7" cy="146" ry="13" stroke="#820" cx="110" stroke-width="6.4"/>
<g transform="scale(-1 1)">
<circle stroke-width="4" cy="137" stroke="#b60" cx="-181" r="27.5" fill="#fff"/>
<ellipse rx="13.7" cy="146" ry="13" stroke="#820" cx="-177" stroke-width="6.4"/>
</g>
</g>
</svg>